<?xml version="1.0" encoding="UTF-8" standalone="no"?>
<svg
   width="50"
   height="50"
   version="1.1"
   xmlns="http://www.w3.org/2000/svg"
   xmlns:svg="http://www.w3.org/2000/svg">
  <g>
    <path
       style="fill:none;stroke:#000000;stroke-width:1.2;"
       d="m 34.888219,32.03155 c -0.486262,0.737116 -0.162581,1.107862 -0.572222,1.876417 -0.443462,0.623387 -1.259867,0.263508 -1.697055,0.800132 -0.443207,0.363305 -0.32426,0.973474 -0.774996,1.404186 -0.731534,0.473982 -0.71354,-0.168459 -2.095372,0.346918 -2.201671,1.051216 -4.160373,1.210647 -5.671676,1.125945 -3.17287,-0.33524 -3.997471,-1.450575 -5.343548,-1.392853 -1.534145,0.07721 -0.873169,-0.916793 -2.143764,-1.115389 -0.505651,-0.0858 -0.757352,-0.182427 -0.997678,-0.529211 -0.319373,-0.460847 -0.0904,-0.826728 -0.08286,-1.454338 -0.0502,-0.654759 -0.584899,-1.214408 -1.060301,-2.05442 -0.721348,-1.274589 -1.327512,-3.150367 -1.412426,-4.682228 -0.0349,-0.884783 -0.334878,-1.298684 -0.628659,-1.505677 -0.36604,-0.257902 -0.757113,-0.454699 -0.579033,-1.048085 0.178077,-0.593386 1.029482,-0.49352 1.244419,-1.320908 0.09832,-0.46887 0.357442,-1.346042 0.684174,-2.098368 0.326732,-0.752325 0.72108,-1.379805 0.790621,-1.691919 0.19613,-1.117338 -0.356058,-1.504323 0.09157,-2.188437 0.476775,-0.811826 1.509807,-0.206295 2.248579,-0.708544 0.339898,-0.28293 0.889573,-0.753424 1.422166,-1.148286 0.532595,-0.394858 1.169803,-0.714085 1.694575,-0.98092 0.817211,-0.415531 0.758654,-0.683863 1.109092,-1.340931 0.346799,-0.625032 1.056848,-0.636761 1.510998,-0.338223 0.531954,0.374405 0.611856,0.69888 2.21086,0.611065 2.819143,-0.06491 5.585238,1.182955 7.142784,2.475078 1.242525,1.014574 1.377878,0.856758 2.089468,0.859378 0.79185,-0.0067 1.096502,0.609203 0.984157,1.266327 -0.0638,0.721547 -0.252369,0.85422 0.30314,1.757272 0.433124,0.679657 0.852681,1.794907 1.005508,2.347148 0.180972,0.653949 0.234074,0.731391 0.609624,1.044223 0.414877,0.344881 0.616216,0.522347 0.633192,0.929929 0.01299,0.311288 -0.131774,0.585615 -0.470651,1.086622 -0.252857,0.455914 -0.15978,1.126724 -0.286553,2.348678 -0.06511,0.627621 -0.312717,1.803903 -0.65656,2.671279 -0.343845,0.867374 -0.64289,1.65008 -1.301587,2.64814 z" />
    <path
       style="fill:none;stroke:#000000;stroke-width:0.55;"
       d="m 34.306323,25.039351 c -0.0082,5.120489 -4.161823,9.266975 -9.282315,9.266973 -5.12649,0 -9.282332,-4.15584 -9.282332,-9.28233 0,-5.120491 4.146495,-9.273849 9.26698,-9.282318" />
    <path
       style="fill:none;stroke:#000000;stroke-width:0.55;"
       d="m 25.014619,30.696532 c -3.129188,-0.0051 -5.663152,-2.543337 -5.663151,-5.672526 0,-3.132856 2.539681,-5.672536 5.672536,-5.672536 3.129189,0 5.667352,2.533968 5.672527,5.663154" />
    <ellipse
       style="fill:none;stroke:#000000;stroke-width:0.55;"
       cx="25.025"
       cy="25.025"
       rx="1.55"
       ry="1.60" />
  </g>
</svg>
