<?xml version="1.0" encoding="UTF-8" standalone="no"?>
<svg
   width="600"
   height="150"
   version="1.1"
   xmlns="http://www.w3.org/2000/svg"
   xmlns:svg="http://www.w3.org/2000/svg">
  <g>
    <text
       xml:space="preserve"
       style="font-style:normal;font-weight:normal;font-size:85px;line-height:1.25;font-family:sans-serif;letter-spacing:0px;word-spacing:0px;fill:#000000;fill-opacity:1;"
       x="180"
       y="104">
      <tspan
         style="font-style:normal;font-variant:normal;font-weight:normal;font-stretch:normal;font-size:85px;font-family:P052;stroke-width:1"
         x="180"
         y="104">Work Log
      </tspan>
    </text>
    <g>
      <path
         style="fill:none;stroke:#000000;stroke-width:3.7;"
         d="m 128.91676,102.33096 c -1.93797,2.83959 -0.64797,4.26781 -2.28057,7.22853 -1.76738,2.40146 -5.02112,1.0151 -6.76351,3.08234 -1.76637,1.39956 -1.29233,3.75012 -3.0887,5.40935 -2.9155,1.82592 -2.84378,-0.64896 -8.35099,1.33643 -8.77463,4.04959 -16.580935,4.66377 -22.604158,4.33748 -12.645287,-1.29145 -15.931693,-5.58806 -21.296404,-5.36569 -6.114246,0.29736 -3.479963,-3.53177 -8.543849,-4.29682 -2.015246,-0.3305 -3.018386,-0.70276 -3.976191,-2.03867 -1.272839,-1.77532 -0.360287,-3.18481 -0.330178,-5.60256 -0.200059,-2.52232 -2.331083,-4.67826 -4.225768,-7.914238 -2.874894,-4.9101 -5.290723,-12.136172 -5.629145,-18.037346 -0.139092,-3.408462 -1.334636,-5.002938 -2.505482,-5.800328 -1.458835,-0.99352 -3.017433,-1.751635 -2.30771,-4.03754 0.709723,-2.285905 4.102943,-1.901187 4.959562,-5.088533 0.391867,-1.806225 1.424567,-5.185359 2.726741,-8.083546 1.302174,-2.89819 2.873825,-5.315424 3.150975,-6.517785 0.781664,-4.304315 -1.419048,-5.795097 0.364942,-8.430505 1.900158,-3.127408 6.017254,-0.794714 8.961589,-2.729536 1.354642,-1.089931 3.545342,-2.902416 5.667956,-4.423535 2.12263,-1.52112 4.662185,-2.750874 6.753636,-3.778802 3.256947,-1.600758 3.02357,-2.634454 4.420229,-5.165671 1.382145,-2.407811 4.212004,-2.452999 6.021999,-1.302939 2.120077,1.442318 2.438519,2.692297 8.811247,2.354004 11.235539,-0.250026 22.259669,4.557107 28.467179,9.534747 4.95201,3.908449 5.49145,3.300491 8.32746,3.310585 3.15586,-0.02589 4.37005,2.34683 3.9223,4.878274 -0.25424,2.779616 -1.00581,3.290714 1.20814,6.769542 1.7262,2.618232 3.39832,6.914512 4.0074,9.041923 0.72125,2.519209 0.93289,2.817529 2.42962,4.02266 1.65347,1.328579 2.45589,2.012229 2.52356,3.582365 0.0517,1.199172 -0.52522,2.25597 -1.87576,4.185989 -1.00775,1.756315 -0.63678,4.340476 -1.14204,9.047814 -0.25953,2.417786 -1.24632,6.949176 -2.61669,10.29057 -1.37037,3.34139 -2.56219,6.356608 -5.18739,10.201441 z" />
      <ellipse
         style="fill:none;fill-rule:evenodd;stroke:#000000;stroke-width:2.25205;stroke-linecap:round;stroke-linejoin:round;stroke-miterlimit:4;stroke-dasharray:none"
         cx="89.184677"
         cy="75.546227"
         rx="6.1893063"
         ry="6.1868868"
         id="ellipse8" />
      <path
         style="fill:none;stroke:#000000;stroke-width:2.2;"
         d="m 89.139995,102.54079 c -14.897067,-0.0246 -26.96047,-12.103297 -26.960468,-26.994564 0,-14.908705 12.090618,-26.994598 27.005151,-26.994598 14.897092,-2e-6 26.980472,12.058697 27.005122,26.949949" />
      <ellipse
         style="fill:none;stroke:#000000;stroke-width:2.2;"
         cx="89.184677"
         cy="75.546227"
         rx="36.977386"
         ry="36.962936" />
      <path
         style="fill:none;stroke:#000000;stroke-width:2.2;"
         d="m 106.36581,75.50162 a 17.181192,17.174478 0 0 1 6e-5,0.04461 v 0 A 17.181192,17.174478 0 0 1 89.184678,92.720705 17.181192,17.174478 0 0 1 72.003486,75.546226 17.181192,17.174478 0 0 1 89.140018,58.371806" />
    </g>
  </g>
</svg>
