<?xml version="1.0" encoding="UTF-8" standalone="no"?>
<svg
   width="120"
   height="120"
   version="1.1"
   xmlns="http://www.w3.org/2000/svg"
   xmlns:svg="http://www.w3.org/2000/svg">
  <g>
    <path
       style="fill:none;stroke:#000000;stroke-width:3.6;"
       d="m 98.08649,87.37376 c -1.817659,2.752205 -0.607747,4.136464 -2.13899,7.006067 -1.657654,2.327559 -4.709398,0.983866 -6.343608,2.987477 -1.656717,1.356493 -1.212099,3.634706 -2.896953,5.242876 -2.734491,1.76973 -2.667224,-0.62899 -7.832535,1.2953 -8.229876,3.92496 -15.551543,4.52024 -21.200828,4.20399 -11.860233,-1.2517 -14.94261,-5.41608 -19.974266,-5.20056 -5.734657,0.28821 -3.263918,-3.423069 -8.013424,-4.164574 -1.890134,-0.320328 -2.830996,-0.68113 -3.729338,-1.975932 -1.193818,-1.720686 -0.337919,-3.086799 -0.30968,-5.430136 -0.187639,-2.444695 -2.186363,-4.534283 -3.96342,-7.670674 -2.696413,-4.758989 -4.962261,-11.762674 -5.279673,-17.482236 -0.130456,-3.303564 -1.251778,-4.848969 -2.349935,-5.621819 -1.368266,-0.962944 -2.830102,-1.697727 -2.164441,-3.913282 0.665662,-2.215555 3.848222,-1.842677 4.65166,-4.931931 0.367538,-1.750637 1.336125,-5.025777 2.557457,-7.83477 1.221331,-2.808996 2.69541,-5.151839 2.955354,-6.317198 0.733136,-4.171847 -1.33095,-5.616749 0.342285,-8.171051 1.782191,-3.03116 5.643686,-0.770256 8.405229,-2.645533 1.270542,-1.056388 3.325237,-2.813092 5.316074,-4.287399 1.990851,-1.474306 4.372744,-2.666214 6.334352,-3.662506 3.054748,-1.551494 2.835859,-2.553377 4.145809,-5.006695 1.296338,-2.333709 3.950512,-2.377506 5.648137,-1.26284 1.988457,1.39793 2.28713,2.60944 8.264221,2.281559 10.538004,-0.242332 20.877729,4.416858 26.699854,9.241308 4.644578,3.788165 5.15053,3.198917 7.810472,3.208701 2.959938,-0.0251 4.098742,2.274605 3.678789,4.728142 -0.238448,2.694072 -0.943362,3.18944 1.133139,6.561205 1.619029,2.537656 3.187349,6.701716 3.758609,8.763654 0.67648,2.441679 0.87497,2.730818 2.27878,3.89886 1.55082,1.287692 2.30343,1.950302 2.3669,3.472116 0.0485,1.162267 -0.49262,2.186541 -1.75931,4.057163 -0.94519,1.702263 -0.59725,4.206895 -1.07114,8.769362 -0.24342,2.343377 -1.16894,6.735311 -2.45424,9.973871 -1.2853,3.238557 -2.40312,6.16098 -4.86534,9.887485 z" />
    <ellipse
       style="fill:none;stroke:#000000;stroke-width:2.1;"
       cx="60.821083"
       cy="61.413342"
       rx="5.805057"
       ry="5.9964819"
       id="ellipse2511" />
    <path
       style="fill:none;stroke:#000000;stroke-width:2.1;"
       d="M 60.779171,87.577133 C 46.806955,87.553128 35.492481,75.846321 35.492482,61.413341 c 0,-14.449879 11.340001,-26.163823 25.328597,-26.163823 13.972237,-2e-6 25.305454,11.687585 25.328567,26.120548" />
    <ellipse
       style="fill:none;stroke:#000000;stroke-width:2.1;"
       cx="60.821083"
       cy="61.413342"
       rx="34.681728"
       ry="35.825382" />
    <path
       style="fill:none;stroke:#000000;stroke-width:2.1;"
       d="m 76.935559,61.370109 a 16.114536,16.645924 0 0 1 5.7e-5,0.04325 v 0 A 16.114536,16.645924 0 0 1 60.821079,78.059272 16.114536,16.645924 0 0 1 44.706542,61.413348 16.114536,16.645924 0 0 1 60.779192,44.767482" />
  </g>
</svg>
