<?xml version="1.0" encoding="UTF-8" standalone="no"?>
<svg
   width="32"
   height="32"
   version="1.1"
   xmlns="http://www.w3.org/2000/svg"
   xmlns:svg="http://www.w3.org/2000/svg">
  <circle
     style="fill:#ffffff;"
     cx="16"
     cy="16"
     r="16" />
  <path
     style="fill:none;stroke:#000000;stroke-width:1.4;"
     d="m 26.691685,23.401059 c -0.516221,0.756683 -0.172602,1.137267 -0.60748,1.926227 -0.470779,0.639932 -1.337484,0.270501 -1.801605,0.821368 -0.470513,0.37295 -0.34424,0.999316 -0.822744,1.44146 -0.776604,0.486564 -0.7575,-0.172931 -2.224465,0.356126 -2.337311,1.079118 -4.416688,1.242782 -6.021103,1.155833 -3.368344,-0.344139 -4.243749,-1.489081 -5.6727554,-1.429826 -1.628661,0.07924 -0.926963,-0.941129 -2.275838,-1.144996 -0.536804,-0.08807 -0.804012,-0.187268 -1.059144,-0.543257 -0.339048,-0.47308 -0.09597,-0.848675 -0.08795,-1.492945 -0.05329,-0.672137 -0.620934,-1.246642 -1.125624,-2.108952 -0.76579,-1.308422 -1.409298,-3.233994 -1.499444,-4.806513 -0.03705,-0.908272 -0.355509,-1.333161 -0.667389,-1.545646 -0.388592,-0.264749 -0.8037581,-0.466768 -0.6147081,-1.075906 0.1890501,-0.609138 1.0929071,-0.50662 1.3210861,-1.35597 0.104382,-0.481315 0.379464,-1.381772 0.726326,-2.154068 0.346862,-0.772297 0.765505,-1.416431 0.83933,-1.7368314 0.208213,-1.146995 -0.377994,-1.544252 0.09721,-2.246524 0.506148,-0.833378 1.602825,-0.211772 2.387112,-0.727355 0.360838,-0.29044 0.944378,-0.773423 1.509782,-1.1787643 C 9.6576896,5.149178 10.334155,4.8214785 10.891258,4.5475608 11.758816,4.1209979 11.696651,3.8455431 12.068681,3.1710354 12.436845,2.5294123 13.190639,2.5173709 13.67277,2.823834 c 0.564728,0.3843424 0.649552,0.7174313 2.347065,0.6272847 2.992827,-0.066626 5.929342,1.2143578 7.582844,2.5407775 1.319075,1.0415064 1.462767,0.8795004 2.218199,0.8821904 0.840632,-0.0069 1.164056,0.625373 1.044788,1.299941 -0.06772,0.7407 -0.267918,0.876895 0.321815,1.803918 0.45981,0.6976954 0.905216,1.8425494 1.067458,2.4094524 0.192121,0.671308 0.248494,0.750803 0.647181,1.071941 0.440437,0.354034 0.65418,0.53621 0.672205,0.954613 0.01377,0.31955 -0.139904,0.601161 -0.499649,1.115464 -0.268436,0.468015 -0.169622,1.156631 -0.304208,2.411022 -0.06913,0.644281 -0.331983,1.851786 -0.697011,2.742186 -0.365028,0.890399 -0.682495,1.693881 -1.381772,2.718435 z" />
  <ellipse
     style="fill:none;stroke:#000000;stroke-width:0.8;"
     cx="16.108191"
     cy="16.26358"
     rx="1.6486548"
     ry="1.6486546" />
  <path
     style="fill:none;stroke:#000000;stroke-width:0.8;"
     d="m 16.096287,23.456974 c -3.968154,-0.0066 -7.1815009,-3.225234 -7.1815004,-7.193394 0,-3.972806 3.2205964,-7.1934023 7.1934024,-7.1934023 3.96816,-6e-7 7.18683,3.2133493 7.193394,7.1815043" />
</svg>
